<?xml version="1.0" standalone="no"?>
<!DOCTYPE svg PUBLIC "-//W3C//DTD SVG 20010904//EN"
 "http://www.w3.org/TR/2001/REC-SVG-20010904/DTD/svg10.dtd">
<svg version="1.0" xmlns="http://www.w3.org/2000/svg"
 width="2084.000000pt" height="2084.000000pt" viewBox="0 0 2084.000000 2084.000000"
 preserveAspectRatio="xMidYMid meet">

<g transform="translate(0.000000,2084.000000) scale(0.100000,-0.100000)"
fill="#000000" stroke="none">
<path d="M10378 17788 c-25 -35 -231 -335 -458 -668 -227 -333 -416 -608 -419
-612 -3 -3 -50 55 -104 129 -54 74 -97 136 -95 137 204 134 298 295 285 491
-12 198 -109 345 -264 406 -45 17 -85 23 -183 27 -148 5 -177 0 -580 -96
l-285 -69 -17 -603 c-9 -331 -19 -605 -22 -607 -2 -3 -95 14 -207 37 -208 43
-218 44 -219 2 0 -25 -53 -118 -89 -155 -55 -59 -118 -87 -194 -87 -98 0 -158
47 -215 167 -24 52 -27 69 -27 168 0 102 2 114 29 168 88 174 287 233 407 120
l26 -24 151 180 c84 100 152 185 152 190 0 5 -23 30 -52 55 -210 184 -493 181
-782 -7 -210 -137 -337 -313 -402 -557 -24 -88 -24 -299 -1 -394 70 -281 241
-472 477 -532 94 -24 258 -15 363 20 149 50 278 127 377 226 89 89 140 170
187 300 l23 65 -6 -124 c-4 -100 -3 -123 8 -119 7 3 115 29 239 58 l226 53 7
96 c3 53 6 149 6 214 l0 117 27 11 c15 5 43 11 61 12 34 2 37 -1 151 -166 65
-92 122 -172 128 -178 15 -15 492 96 509 117 9 11 47 14 178 14 l166 0 66 100
67 100 252 0 252 0 14 -97 14 -98 275 -5 275 -5 543 -128 c298 -70 548 -127
555 -127 10 0 186 320 195 355 2 7 -111 37 -298 80 -165 38 -300 72 -300 75 0
3 215 118 478 255 l477 250 82 155 c45 85 79 158 75 161 -10 8 -1251 293
-1255 288 -12 -13 -187 -347 -187 -356 0 -5 82 -29 183 -52 100 -23 231 -54
290 -68 60 -14 107 -27 104 -29 -2 -2 -217 -116 -478 -253 -455 -238 -475
-250 -498 -291 -13 -23 -27 -38 -31 -33 -4 4 -46 269 -94 588 -48 319 -90 588
-92 598 -5 16 -25 17 -244 17 l-238 0 -44 -62z m-1322 -537 c87 -53 55 -188
-57 -247 -25 -13 -240 -74 -261 -74 -7 0 1 281 8 289 2 2 45 14 96 27 117 29
173 30 214 5z m1475 -163 c10 -89 17 -164 15 -165 -2 -2 -59 -2 -128 -1 l-124
3 105 166 c58 92 108 165 110 163 2 -2 12 -76 22 -166z"/>
<path d="M13095 17328 c-2 -13 -32 -223 -66 -467 l-61 -444 -184 -215 c-101
-119 -184 -218 -184 -221 0 -4 97 -53 216 -109 165 -78 219 -100 230 -92 7 7
83 94 169 195 l157 183 579 253 c318 140 579 256 579 259 0 3 -116 60 -259
128 l-258 123 -272 -135 c-186 -94 -271 -131 -271 -121 0 8 20 111 45 228 25
118 45 221 45 229 0 9 -81 54 -222 121 -123 59 -226 107 -230 107 -4 0 -10
-10 -13 -22z"/>
<path d="M14020 16087 c0 -25 36 -61 248 -248 705 -621 1108 -1064 1492 -1639
662 -993 1027 -2019 1146 -3225 23 -224 26 -908 6 -1135 -75 -848 -270 -1601
-613 -2358 -136 -301 -267 -546 -506 -949 -80 -136 -158 -274 -174 -307 -97
-205 180 44 477 429 42 55 132 183 199 285 594 896 946 1952 1025 3080 15 221
12 738 -5 961 -122 1512 -733 2906 -1751 3991 -435 464 -1060 943 -1429 1095
-86 35 -115 40 -115 20z"/>
<path d="M6354 15826 c-287 -139 -754 -517 -1108 -894 -984 -1050 -1583 -2396
-1721 -3867 -22 -235 -30 -726 -16 -955 71 -1140 406 -2187 978 -3059 214
-327 469 -618 498 -571 12 19 -17 83 -201 450 -254 508 -371 777 -493 1134
-651 1904 -482 3916 474 5641 105 191 182 316 318 519 298 445 559 757 1047
1251 308 312 350 358 350 380 0 25 -32 17 -126 -29z"/>
<path d="M9921 14580 c-93 -25 -163 -57 -241 -110 -292 -198 -567 -660 -641
-1076 -35 -200 -37 -539 -3 -755 l6 -36 -108 -35 c-317 -103 -657 -286 -924
-498 -141 -111 -414 -386 -536 -540 -316 -399 -556 -847 -713 -1333 -128 -394
-185 -748 -184 -1137 0 -344 38 -585 139 -890 172 -521 500 -941 987 -1264
1055 -700 2818 -859 4201 -379 142 49 365 142 479 200 854 428 1656 1269 1970
2063 148 374 194 724 122 920 -36 100 -101 196 -183 271 -61 56 -110 90 -373
262 -157 103 -273 253 -404 522 -40 83 -111 229 -158 325 -149 307 -341 565
-634 851 -320 313 -561 486 -843 607 -108 47 -323 120 -398 137 l-32 7 44 50
c53 61 100 151 121 233 40 156 -7 310 -134 435 -139 138 -383 219 -621 208
-83 -4 -100 -3 -96 9 32 82 41 137 40 243 -1 103 -4 126 -34 213 -78 233 -255
413 -475 483 -112 36 -270 42 -374 14z m242 -235 c96 -20 178 -67 245 -141
140 -152 179 -344 102 -500 -36 -75 -106 -152 -245 -274 -122 -107 -208 -213
-273 -338 -87 -168 -142 -360 -125 -444 9 -50 40 -106 69 -125 39 -25 113 -22
152 6 43 30 59 64 68 142 12 118 99 298 210 437 104 131 276 244 422 278 83
20 268 14 357 -10 292 -81 393 -310 236 -536 -34 -50 -50 -61 -164 -121 -70
-36 -143 -79 -164 -95 -94 -71 -199 -209 -191 -251 2 -12 16 -5 58 31 113 98
213 156 335 196 39 13 86 31 105 41 l36 17 104 -39 c251 -94 555 -265 747
-420 109 -88 419 -401 535 -539 212 -254 317 -423 448 -720 260 -594 350 -718
679 -937 106 -71 202 -144 242 -183 138 -138 167 -270 115 -525 -130 -635
-602 -1326 -1281 -1874 -553 -446 -1156 -711 -1905 -835 -883 -147 -1811 -73
-2595 209 -151 54 -470 208 -600 290 -587 369 -937 887 -1051 1553 -52 309
-53 623 -3 968 118 814 532 1644 1104 2219 214 214 440 383 730 546 134 75
374 193 380 187 2 -1 15 -57 30 -123 30 -134 55 -207 71 -212 20 -7 22 43 12
276 -27 662 53 1026 306 1405 141 211 260 330 402 401 110 55 182 65 297 40z"/>
<path d="M11303 11499 c-69 -12 -201 -60 -280 -104 -35 -19 -139 -84 -231
-142 -296 -190 -539 -299 -770 -343 -56 -11 -131 -20 -166 -20 -82 0 -97 -15
-60 -59 55 -66 155 -95 319 -93 123 1 227 19 360 63 180 60 313 133 575 314
256 177 380 225 549 211 150 -13 146 -13 149 11 2 13 -9 35 -29 58 -78 89
-250 132 -416 104z"/>
<path d="M7630 10566 c-76 -17 -137 -51 -160 -89 -11 -18 -20 -35 -20 -39 0
-20 36 -36 92 -42 107 -12 136 -23 373 -141 240 -120 336 -155 484 -175 94
-13 162 -6 194 21 21 17 21 20 7 46 -8 15 -47 49 -85 75 -106 70 -540 294
-625 321 -94 31 -189 40 -260 23z"/>
<path d="M10670 10550 c-200 -69 -375 -268 -440 -502 -100 -360 160 -708 529
-708 157 0 284 52 390 159 115 116 165 240 164 406 -3 292 -180 577 -401 645
-80 25 -170 25 -242 0z m467 -306 c55 -35 77 -116 48 -177 -55 -117 -236 -95
-261 31 -14 69 35 148 101 165 29 8 86 -2 112 -19z"/>
<path d="M7722 10008 c-53 -18 -118 -83 -152 -151 -75 -154 -58 -290 49 -390
135 -127 345 -91 436 75 26 46 30 63 30 133 0 68 -5 89 -30 140 -33 69 -112
152 -170 180 -48 22 -118 28 -163 13z m232 -168 c27 -10 56 -56 56 -89 0 -11
-12 -33 -26 -50 -21 -25 -33 -31 -65 -31 -86 0 -123 100 -58 154 33 28 53 32
93 16z"/>
<path d="M13031 9921 c-65 -18 -26 -48 124 -97 128 -42 182 -69 192 -98 15
-47 -4 -272 -37 -434 -83 -399 -291 -668 -505 -650 -106 9 -216 112 -308 288
-88 167 -137 347 -188 695 -16 110 -34 217 -40 238 -21 78 -56 32 -86 -112
-23 -109 -23 -463 0 -586 66 -358 227 -629 437 -735 158 -80 346 -62 514 51
273 182 430 587 414 1066 -5 127 -10 169 -27 214 -47 123 -144 169 -351 168
-63 -1 -126 -4 -139 -8z"/>
<path d="M9044 9730 c-71 -10 -117 -26 -204 -71 -171 -88 -430 -365 -489 -524
-60 -159 -24 -306 102 -420 229 -208 690 -265 1086 -135 254 83 361 188 361
356 0 111 -36 210 -123 339 -78 114 -284 311 -402 383 -97 59 -226 87 -331 72z
m191 -215 c68 -30 153 -97 254 -197 147 -146 220 -271 221 -375 0 -46 -4 -56
-34 -86 -91 -92 -391 -165 -630 -154 -256 11 -474 109 -522 233 -35 91 17 197
181 372 202 214 369 280 530 207z"/>
<path d="M6165 6156 c-170 -33 -323 -109 -443 -221 -96 -89 -152 -165 -191
-259 -100 -239 -42 -482 164 -692 160 -162 337 -250 541 -270 83 -7 244 12
244 30 0 6 -19 101 -42 211 l-42 200 -100 0 c-90 0 -106 3 -152 27 -54 28
-119 93 -134 134 -18 47 -12 131 14 182 32 63 117 142 191 177 48 23 78 29
147 33 77 4 92 2 142 -21 83 -38 122 -73 152 -133 22 -46 26 -63 21 -107 -4
-29 -9 -61 -12 -73 -6 -19 9 -25 217 -86 252 -73 236 -74 264 17 54 170 11
365 -113 520 -108 134 -322 269 -498 315 -102 27 -275 34 -370 16z"/>
<path d="M14155 5947 c-127 -78 -199 -128 -198 -137 2 -8 46 -161 98 -339 52
-179 93 -326 92 -328 -2 -1 -144 90 -317 203 -198 129 -319 203 -329 199 -8
-3 -97 -56 -198 -117 -159 -96 -182 -114 -177 -132 5 -20 -32 -33 -581 -214
l-585 -193 0 -29 c0 -17 -5 -30 -12 -30 -24 0 -443 -41 -464 -45 -13 -3 -97
-105 -230 -279 -115 -151 -209 -274 -211 -273 -1 2 17 116 40 254 23 139 39
254 37 257 -8 7 -469 -40 -478 -48 -8 -8 -253 -1479 -247 -1484 2 -2 110 7
240 19 275 27 243 6 270 179 l18 115 86 107 c47 59 89 107 93 107 3 1 54 -97
112 -216 59 -119 108 -219 110 -220 4 -4 509 46 514 51 2 2 -81 171 -183 376
-102 205 -184 378 -181 386 6 17 487 606 491 602 2 -2 20 -302 40 -668 21
-366 39 -666 40 -668 2 -3 1186 386 1191 391 4 4 -17 389 -21 404 -3 8 -125
-29 -365 -109 -199 -66 -363 -118 -366 -116 -2 3 -7 38 -10 79 l-6 74 342 114
341 113 -5 37 c-3 20 -8 100 -12 179 -4 80 -11 142 -16 142 -6 0 -156 -48
-334 -106 -179 -59 -327 -105 -329 -102 -2 2 -6 35 -7 72 l-3 69 354 118 c195
65 358 122 361 126 4 5 3 73 -2 153 -5 79 -7 151 -6 159 2 11 310 -1022 379
-1275 6 -19 14 -34 18 -34 6 0 393 232 408 245 3 1 -190 670 -202 703 -6 17 4
11 358 -221 158 -103 294 -190 301 -193 10 -4 342 189 369 216 5 4 -75 295
-178 646 -233 799 -235 804 -243 804 -4 0 -97 -56 -207 -123z"/>
<path d="M6937 4962 l-498 -567 218 -107 c120 -59 221 -106 224 -105 3 1 84
91 179 200 95 108 176 197 181 197 5 0 95 -43 200 -96 l191 -95 -20 -22 c-104
-114 -331 -381 -328 -386 2 -3 101 -53 220 -110 191 -92 218 -102 229 -88 6 8
228 261 492 562 264 300 481 549 483 553 1 4 -95 56 -214 115 -209 104 -218
108 -234 90 -15 -16 -330 -374 -335 -380 -2 -3 -387 186 -394 192 -1 2 76 93
172 202 l176 198 -212 107 c-117 59 -216 107 -222 107 -5 1 -234 -254 -508
-567z"/>
<path d="M8385 4324 c-214 -349 -391 -638 -393 -642 -1 -5 102 -39 228 -76
197 -59 233 -67 244 -55 16 17 787 1271 784 1274 -7 4 -456 135 -464 135 -5
-1 -184 -286 -399 -636z"/>
<path d="M9677 4760 c-396 -71 -685 -372 -738 -766 -20 -155 18 -317 106 -439
57 -81 121 -135 215 -184 310 -161 707 -121 937 94 l53 50 -148 155 -149 154
-40 -32 c-71 -56 -139 -82 -218 -82 -131 0 -210 60 -235 177 -31 142 64 333
201 408 69 37 194 47 264 21 56 -22 112 -83 127 -141 7 -25 15 -45 18 -45 14
1 443 129 448 135 11 11 -18 120 -50 185 -41 86 -150 194 -238 237 -115 56
-199 74 -360 78 -80 2 -167 0 -193 -5z"/>
</g>
</svg>
