<?xml version="1.0" encoding="UTF-8"?>
<svg xmlns="http://www.w3.org/2000/svg" viewBox="0 0 1000 1000">
  <defs>
    <style>
      .cls-1 {
        opacity: .1;
      }

      .cls-2 {
        opacity: .3;
      }

      .cls-3 {
        opacity: .8;
      }

      .cls-4, .cls-5 {
        stroke-width: 0px;
      }

      .cls-6 {
        opacity: 0;
      }

      .cls-5 {
        fill: #fff;
      }
    </style>
  </defs>
  <g id="Layer_4" data-name="Layer 4">
    <circle class="cls-4" cx="497.75" cy="500" r="494.18"/>
  </g>
  <g id="logo">
    <g>
      <g class="cls-1">
        <path class="cls-5" d="m684.77,855.16c-32.84,0-65.78-5.69-97.6-17.14-72.34-26.02-130.21-78.65-162.97-148.2-32.75-69.55-36.46-147.69-10.44-220.03,26.02-72.34,78.65-130.21,148.2-162.97,69.55-32.75,147.69-36.46,220.03-10.44,72.34,26.02,130.21,78.65,162.97,148.2,32.75,69.55,36.46,147.69,10.44,220.03-26.02,72.34-78.65,130.21-148.2,162.96-38.96,18.35-80.61,27.58-122.43,27.58Zm-.36-559.76c-39.48,0-78.79,8.71-115.56,26.03-65.65,30.91-115.33,85.54-139.89,153.82-24.56,68.28-21.06,142.04,9.85,207.69,30.91,65.65,85.54,115.33,153.82,139.89,68.28,24.56,142.04,21.06,207.68-9.85,65.65-30.92,115.33-85.54,139.89-153.82l7.6,2.73-7.6-2.73c24.56-68.28,21.06-142.04-9.85-207.69-30.91-65.65-85.54-115.33-153.82-139.89-30.03-10.8-61.13-16.18-92.12-16.18Z"/>
      </g>
      <g class="cls-6">
        <path class="cls-5" d="m622.49,832.76c-32.84,0-65.78-5.69-97.6-17.14-72.34-26.02-130.21-78.65-162.97-148.2-32.75-69.55-36.46-147.69-10.44-220.03,26.02-72.34,78.65-130.21,148.2-162.97,69.55-32.75,147.69-36.46,220.03-10.44,72.34,26.02,130.21,78.65,162.97,148.2,32.75,69.55,36.46,147.69,10.44,220.03l-7.6-2.73,7.6,2.73c-26.02,72.34-78.65,130.21-148.2,162.97-38.96,18.34-80.61,27.58-122.43,27.58Zm-.37-559.76c-39.48,0-78.79,8.71-115.56,26.03-65.65,30.91-115.33,85.54-139.89,153.82-24.56,68.28-21.06,142.04,9.85,207.69,30.91,65.65,85.54,115.33,153.82,139.89,68.28,24.56,142.04,21.06,207.68-9.85,65.65-30.91,115.33-85.54,139.89-153.82,24.56-68.28,21.06-142.04-9.85-207.68-30.91-65.65-85.54-115.33-153.82-139.89-30.03-10.8-61.13-16.18-92.13-16.18Z"/>
      </g>
      <g class="cls-3">
        <path class="cls-5" d="m560.21,810.36c-32.84,0-65.78-5.69-97.6-17.14-72.34-26.02-130.21-78.65-162.97-148.2-32.75-69.55-36.46-147.69-10.44-220.03,26.02-72.34,78.65-130.21,148.2-162.97,69.55-32.75,147.69-36.46,220.03-10.44,72.34,26.02,130.21,78.65,162.96,148.2,32.75,69.55,36.46,147.69,10.44,220.03l-7.6-2.73,7.6,2.73c-26.02,72.34-78.65,130.21-148.2,162.97-38.96,18.34-80.61,27.58-122.43,27.58Zm-.37-559.76c-39.48,0-78.79,8.71-115.56,26.03-65.65,30.91-115.33,85.54-139.89,153.82-24.56,68.28-21.06,142.04,9.85,207.68,30.91,65.65,85.54,115.33,153.82,139.89,68.28,24.56,142.04,21.06,207.69-9.85,65.65-30.91,115.33-85.54,139.89-153.82,24.56-68.28,21.06-142.04-9.85-207.68-30.92-65.65-85.54-115.33-153.82-139.89-30.03-10.8-61.13-16.18-92.13-16.18Z"/>
      </g>
      <g class="cls-6">
        <path class="cls-5" d="m560.21,810.36c-32.84,0-65.78-5.69-97.6-17.14-72.34-26.02-130.21-78.65-162.97-148.2-32.75-69.55-36.46-147.69-10.44-220.03,26.02-72.34,78.65-130.21,148.2-162.97,69.55-32.75,147.69-36.46,220.03-10.44,72.34,26.02,130.21,78.65,162.96,148.2,32.75,69.55,36.46,147.69,10.44,220.03l-7.6-2.73,7.6,2.73c-26.02,72.34-78.65,130.21-148.2,162.97-38.96,18.34-80.61,27.58-122.43,27.58Zm-.37-559.76c-39.48,0-78.79,8.71-115.56,26.03-65.65,30.91-115.33,85.54-139.89,153.82-24.56,68.28-21.06,142.04,9.85,207.68,30.91,65.65,85.54,115.33,153.82,139.89,68.28,24.56,142.04,21.06,207.69-9.85,65.65-30.91,115.33-85.54,139.89-153.82,24.56-68.28,21.06-142.04-9.85-207.68-30.92-65.65-85.54-115.33-153.82-139.89-30.03-10.8-61.13-16.18-92.13-16.18Z"/>
      </g>
      <g class="cls-2">
        <path class="cls-5" d="m622.49,832.76c-32.84,0-65.78-5.69-97.6-17.14-72.34-26.02-130.21-78.65-162.97-148.2-32.75-69.55-36.46-147.69-10.44-220.03,26.02-72.34,78.65-130.21,148.2-162.97,69.55-32.75,147.69-36.46,220.03-10.44,72.34,26.02,130.21,78.65,162.97,148.2,32.75,69.55,36.46,147.69,10.44,220.03l-7.6-2.73,7.6,2.73c-26.02,72.34-78.65,130.21-148.2,162.97-38.96,18.34-80.61,27.58-122.43,27.58Zm-.37-559.76c-39.48,0-78.79,8.71-115.56,26.03-65.65,30.91-115.33,85.54-139.89,153.82-24.56,68.28-21.06,142.04,9.85,207.69,30.91,65.65,85.54,115.33,153.82,139.89,68.28,24.56,142.04,21.06,207.68-9.85,65.65-30.91,115.33-85.54,139.89-153.82,24.56-68.28,21.06-142.04-9.85-207.68-30.91-65.65-85.54-115.33-153.82-139.89-30.03-10.8-61.13-16.18-92.13-16.18Z"/>
      </g>
      <path class="cls-5" d="m497.94,787.96c-32.84,0-65.78-5.69-97.6-17.14-72.34-26.02-130.21-78.65-162.97-148.2-32.75-69.55-36.46-147.69-10.44-220.03,26.02-72.34,78.65-130.21,148.2-162.97,69.55-32.75,147.69-36.46,220.03-10.44,72.34,26.02,130.21,78.65,162.96,148.2,32.75,69.55,36.46,147.69,10.44,220.03-26.02,72.34-78.65,130.21-148.2,162.97-38.96,18.34-80.61,27.58-122.43,27.58Zm-.36-559.76c-39.48,0-78.79,8.71-115.56,26.03-65.65,30.91-115.33,85.54-139.89,153.82-24.56,68.28-21.06,142.04,9.85,207.68,30.91,65.65,85.54,115.33,153.82,139.89,68.28,24.56,142.04,21.06,207.69-9.85,65.65-30.91,115.33-85.54,139.89-153.82h0c24.56-68.28,21.06-142.04-9.85-207.68-30.91-65.65-85.54-115.33-153.82-139.89-30.03-10.8-61.13-16.18-92.12-16.18Z"/>
    </g>
  </g>
</svg>