<?xml version="1.0" encoding="UTF-8"?>
<svg id="Layer_1" data-name="Layer 1" xmlns="http://www.w3.org/2000/svg" viewBox="0 0 2000 600">
  <defs>
    <style>
      .cls-1 {
        opacity: .1;
      }

      .cls-2 {
        opacity: .3;
      }

      .cls-3 {
        opacity: .8;
      }

      .cls-4 {
        opacity: 0;
      }

      .cls-5 {
        fill: #fff;
        stroke-width: 0px;
      }
    </style>
  </defs>
  <g>
    <g class="cls-1">
      <path class="cls-5" d="m421.72,564.05c-25.23,0-50.53-4.37-74.97-13.17-55.57-19.99-100.03-60.42-125.19-113.85-25.16-53.43-28.01-113.45-8.02-169.02,19.99-55.57,60.42-100.03,113.85-125.19,53.43-25.16,113.46-28.01,169.02-8.02,55.57,19.99,100.03,60.42,125.19,113.85,25.16,53.43,28.01,113.45,8.02,169.02-19.99,55.57-60.42,100.03-113.85,125.19-29.93,14.09-61.93,21.19-94.05,21.19Zm-.28-430c-30.32,0-60.52,6.69-88.77,20-50.43,23.75-88.59,65.71-107.46,118.17-18.87,52.45-16.18,109.11,7.57,159.54,23.75,50.43,65.71,88.59,118.17,107.46,52.45,18.87,109.11,16.18,159.54-7.57,50.43-23.75,88.59-65.71,107.46-118.17l5.84,2.1-5.84-2.1c18.87-52.45,16.18-109.11-7.57-159.54-23.75-50.43-65.71-88.59-118.17-107.46-23.07-8.3-46.96-12.43-70.77-12.43Z"/>
    </g>
    <g class="cls-4">
      <path class="cls-5" d="m373.88,546.84c-25.23,0-50.53-4.37-74.98-13.17-55.57-19.99-100.03-60.42-125.19-113.85-25.16-53.43-28.01-113.45-8.02-169.02,19.99-55.57,60.42-100.03,113.85-125.19,53.43-25.16,113.46-28.01,169.02-8.02,55.57,19.99,100.03,60.42,125.19,113.85,25.16,53.43,28.01,113.45,8.02,169.02l-5.84-2.1,5.84,2.1c-19.99,55.57-60.42,100.03-113.85,125.19-29.93,14.09-61.92,21.18-94.05,21.18Zm-.28-430c-30.32,0-60.52,6.69-88.77,20-50.43,23.75-88.59,65.71-107.46,118.17-18.87,52.45-16.18,109.11,7.57,159.54,23.75,50.43,65.71,88.59,118.17,107.46,52.45,18.87,109.11,16.18,159.54-7.57,50.43-23.75,88.59-65.71,107.46-118.17,18.87-52.45,16.18-109.11-7.57-159.54-23.75-50.43-65.71-88.59-118.17-107.46-23.07-8.3-46.96-12.43-70.77-12.43Z"/>
    </g>
    <g class="cls-3">
      <path class="cls-5" d="m326.04,529.63c-25.23,0-50.53-4.37-74.98-13.17-55.57-19.99-100.03-60.42-125.19-113.85-25.16-53.43-28.01-113.45-8.02-169.02,19.99-55.57,60.42-100.03,113.85-125.19,53.43-25.16,113.45-28.01,169.02-8.02,55.57,19.99,100.03,60.42,125.19,113.85,25.16,53.43,28.01,113.46,8.02,169.02l-5.84-2.1,5.84,2.1c-19.99,55.57-60.42,100.03-113.85,125.19-29.93,14.09-61.92,21.18-94.05,21.18Zm-.28-430c-30.32,0-60.52,6.69-88.77,20-50.43,23.75-88.59,65.71-107.46,118.17-18.87,52.45-16.18,109.11,7.57,159.54s65.71,88.59,118.17,107.46c52.45,18.87,109.11,16.18,159.54-7.57,50.43-23.75,88.59-65.71,107.46-118.17,18.87-52.45,16.18-109.11-7.57-159.54-23.75-50.43-65.71-88.59-118.17-107.46-23.07-8.3-46.96-12.43-70.77-12.43Z"/>
    </g>
    <g class="cls-4">
      <path class="cls-5" d="m326.04,529.63c-25.23,0-50.53-4.37-74.98-13.17-55.57-19.99-100.03-60.42-125.19-113.85-25.16-53.43-28.01-113.45-8.02-169.02,19.99-55.57,60.42-100.03,113.85-125.19,53.43-25.16,113.45-28.01,169.02-8.02,55.57,19.99,100.03,60.42,125.19,113.85,25.16,53.43,28.01,113.46,8.02,169.02l-5.84-2.1,5.84,2.1c-19.99,55.57-60.42,100.03-113.85,125.19-29.93,14.09-61.92,21.18-94.05,21.18Zm-.28-430c-30.32,0-60.52,6.69-88.77,20-50.43,23.75-88.59,65.71-107.46,118.17-18.87,52.45-16.18,109.11,7.57,159.54s65.71,88.59,118.17,107.46c52.45,18.87,109.11,16.18,159.54-7.57,50.43-23.75,88.59-65.71,107.46-118.17,18.87-52.45,16.18-109.11-7.57-159.54-23.75-50.43-65.71-88.59-118.17-107.46-23.07-8.3-46.96-12.43-70.77-12.43Z"/>
    </g>
    <g class="cls-2">
      <path class="cls-5" d="m373.88,546.84c-25.23,0-50.53-4.37-74.98-13.17-55.57-19.99-100.03-60.42-125.19-113.85-25.16-53.43-28.01-113.45-8.02-169.02,19.99-55.57,60.42-100.03,113.85-125.19,53.43-25.16,113.46-28.01,169.02-8.02,55.57,19.99,100.03,60.42,125.19,113.85,25.16,53.43,28.01,113.45,8.02,169.02l-5.84-2.1,5.84,2.1c-19.99,55.57-60.42,100.03-113.85,125.19-29.93,14.09-61.92,21.18-94.05,21.18Zm-.28-430c-30.32,0-60.52,6.69-88.77,20-50.43,23.75-88.59,65.71-107.46,118.17-18.87,52.45-16.18,109.11,7.57,159.54,23.75,50.43,65.71,88.59,118.17,107.46,52.45,18.87,109.11,16.18,159.54-7.57,50.43-23.75,88.59-65.71,107.46-118.17,18.87-52.45,16.18-109.11-7.57-159.54-23.75-50.43-65.71-88.59-118.17-107.46-23.07-8.3-46.96-12.43-70.77-12.43Z"/>
    </g>
    <path class="cls-5" d="m278.2,512.42c-25.23,0-50.53-4.37-74.98-13.17-55.57-19.99-100.03-60.42-125.19-113.85-25.16-53.43-28.01-113.45-8.02-169.02,19.99-55.57,60.42-100.03,113.85-125.19,53.43-25.16,113.45-28.01,169.02-8.02,55.57,19.99,100.03,60.42,125.19,113.85,25.16,53.43,28.01,113.46,8.02,169.02-19.99,55.57-60.42,100.03-113.85,125.19-29.93,14.09-61.92,21.18-94.05,21.18Zm-.28-430c-30.33,0-60.52,6.69-88.77,20-50.43,23.75-88.59,65.71-107.46,118.17s-16.18,109.11,7.57,159.54c23.75,50.43,65.71,88.59,118.17,107.46,52.45,18.87,109.11,16.18,159.54-7.57,50.43-23.75,88.59-65.71,107.46-118.17h0c18.87-52.45,16.18-109.11-7.57-159.54-23.75-50.43-65.71-88.59-118.17-107.46-23.07-8.3-46.96-12.43-70.77-12.43Z"/>
  </g>
  <g>
    <path class="cls-5" d="m819.85,381.82h-104.85v-20.97h41.94v-104.85h-41.94v-20.97h104.85v20.97h-41.94v104.85h41.94v20.97Z"/>
    <path class="cls-5" d="m945.67,276.97v20.97h-54.94c-7.27,0-13.46,1.02-18.56,3.04-5.11,2.03-7.65,4.51-7.65,7.44s2.55,5.42,7.65,7.44c5.1,2.03,11.29,3.04,18.56,3.04h5.24c13,0,24.12,3.08,33.34,9.23,9.23,6.15,13.84,13.56,13.84,22.23s-4.61,16.08-13.84,22.23c-9.23,6.15-20.34,9.23-33.34,9.23h-55.15v-20.97h55.15c7.13,0,13.28-1.01,18.45-3.04,5.17-2.02,7.76-4.51,7.76-7.44s-2.59-5.42-7.76-7.44c-5.17-2.02-11.32-3.04-18.45-3.04h-5.24c-13.14,0-24.29-3.07-33.45-9.23-9.16-6.15-13.73-13.56-13.73-22.23s4.58-16.07,13.73-22.23c9.16-6.15,20.31-9.23,33.45-9.23h54.94Z"/>
    <path class="cls-5" d="m1050.52,381.82h-62.91v-20.97h20.97v-104.85h-20.97v-20.97h41.94v125.82h20.97v20.97Z"/>
    <path class="cls-5" d="m1197.31,381.82h-62.91c-11.61,0-21.5-4.09-29.67-12.27s-12.27-18.07-12.27-29.67v-20.97c0-11.6,4.09-21.5,12.27-29.67s18.07-12.27,29.67-12.27h20.97c11.46,0,21.32,4.13,29.57,12.37,8.25,8.25,12.37,18.11,12.37,29.57v20.97h-83.88c0,5.73,2.06,10.66,6.19,14.78,4.12,4.13,9.05,6.19,14.78,6.19h62.91v20.97Zm-20.97-62.91c0-5.73-2.06-10.66-6.19-14.78-4.13-4.12-9.05-6.19-14.78-6.19h-20.97c-5.73,0-10.66,2.06-14.78,6.19-4.13,4.13-6.19,9.05-6.19,14.78h62.91Z"/>
    <path class="cls-5" d="m1323.13,276.97c0,11.46-4.09,21.32-12.27,29.57-8.18,8.25-18.07,12.37-29.67,12.37h-41.94v62.91h-20.97v-146.79h62.91c11.6,0,21.49,4.09,29.67,12.27,8.18,8.18,12.27,18.07,12.27,29.67Zm-20.97,0c0-5.73-2.06-10.66-6.19-14.78-4.13-4.12-9.05-6.19-14.78-6.19h-41.94v41.94h41.94c5.73,0,10.66-2.06,14.78-6.19,4.12-4.12,6.19-9.05,6.19-14.78Z"/>
    <path class="cls-5" d="m1448.95,339.88c0,11.61-4.09,21.5-12.27,29.67-8.18,8.18-18.07,12.27-29.67,12.27h-20.97c-11.61,0-21.5-4.09-29.67-12.27s-12.27-18.07-12.27-29.67v-20.97c0-11.6,4.09-21.5,12.27-29.67s18.07-12.27,29.67-12.27h20.97c11.46,0,21.32,4.13,29.57,12.37,8.25,8.25,12.37,18.11,12.37,29.57v20.97Zm-20.97,0v-20.97c0-5.73-2.06-10.66-6.19-14.78-4.12-4.12-9.05-6.19-14.78-6.19h-20.97c-5.73,0-10.66,2.06-14.78,6.19-4.13,4.13-6.19,9.05-6.19,14.78v20.97c0,5.73,2.06,10.66,6.19,14.78,4.12,4.13,9.05,6.19,14.78,6.19h20.97c5.73,0,10.66-2.06,14.78-6.19,4.12-4.12,6.19-9.05,6.19-14.78Z"/>
    <path class="cls-5" d="m1490.89,276.97v28.73l13.21-13c10.49-10.49,20.06-15.73,28.73-15.73,11.6,0,21.5,4.09,29.67,12.27,8.18,8.18,12.27,18.07,12.27,29.67h-20.94c0-5.73-2.06-10.66-6.18-14.78-4.12-4.12-9.04-6.19-14.76-6.19-6.98,0-13.96,3.53-20.94,10.57l-21.06,21.02v52.29h-20.97v-104.85h20.97Z"/>
    <path class="cls-5" d="m1700.38,381.82h-20.97c-11.61,0-21.5-4.09-29.67-12.27-8.18-8.18-12.27-18.07-12.27-29.67v-41.94h-20.97v-20.97h20.97v-41.94h20.97v41.94h20.97v20.97h-20.97v41.94c0,5.73,2.06,10.66,6.19,14.78,4.12,4.13,9.05,6.19,14.78,6.19h20.97v20.97Z"/>
    <path class="cls-5" d="m1826.41,276.97v104.85h-20.97v-28.94l-13,13.21c-10.49,10.49-20.13,15.73-28.94,15.73-11.61,0-21.5-4.09-29.67-12.27-8.18-8.18-12.27-18.07-12.27-29.67v-20.97c0-11.6,4.09-21.5,12.27-29.67,8.18-8.18,18.07-12.27,29.67-12.27h62.91Zm-62.91,20.97c-5.73,0-10.66,2.06-14.78,6.19-4.13,4.13-6.19,9.05-6.19,14.78v20.97c0,5.73,2.06,10.66,6.18,14.78,4.12,4.13,9.04,6.19,14.77,6.19,6.98,0,13.96-3.51,20.95-10.53l21.02-21.06v-31.32h-41.94Z"/>
    <path class="cls-5" d="m1931.26,381.82h-62.91v-20.97h20.97v-104.85h-20.97v-20.97h41.94v125.82h20.97v20.97Z"/>
  </g>
</svg>